<svg xmlns="http://www.w3.org/2000/svg" width="32.503" height="27.499" viewBox="0 0 32.503 27.499"><path d="M32,.753A2.11,2.11,0,0,0,30.326,0a3.285,3.285,0,0,0-1.169.233L1.645,10.735C.184,11.292-.012,12.129,0,12.577s.256,1.273,1.746,1.747l.027.008L7.48,15.965l3.086,8.826a2.664,2.664,0,0,0,2.465,1.951A2.917,2.917,0,0,0,15,25.9l3.53-3.25,5.12,4.123h0l.049.039.014.011a2.956,2.956,0,0,0,1.8.675h0a2.522,2.522,0,0,0,2.4-2.236L32.429,3A2.659,2.659,0,0,0,32,.753ZM9.389,15.655,20.4,10.03l-6.856,7.285a.951.951,0,0,0-.231.424l-1.322,5.355ZM13.714,24.5c-.046.042-.092.079-.137.114L14.8,19.646l2.231,1.8ZM30.562,2.626l-4.508,22.26c-.043.213-.182.709-.538.709a1.11,1.11,0,0,1-.624-.27l-5.8-4.671,0,0-3.452-2.78L25.55,7.336a.952.952,0,0,0-1.127-1.5L8.117,14.166,2.332,12.511l27.5-10.5a1.4,1.4,0,0,1,.49-.107c.058,0,.162.007.2.054a.908.908,0,0,1,.035.667Zm0,0" transform="translate(0)" fill="#ccc" opacity="0.7"/></svg>