<svg xmlns="http://www.w3.org/2000/svg" width="31.99" height="31.991" viewBox="0 0 31.99 31.991"><path d="M16.311,31.992h-.319c-2.508.006-4.825-.058-7.078-.195a9.461,9.461,0,0,1-5.454-2.064A8.754,8.754,0,0,1,.519,24.984a21.044,21.044,0,0,1-.483-5.025C.02,18.791,0,17.407,0,16s.02-2.8.036-3.965A21.046,21.046,0,0,1,.519,7.01,8.754,8.754,0,0,1,3.461,2.261,9.461,9.461,0,0,1,8.915.2C11.168.06,13.485,0,16,0S20.823.06,23.076.2A9.461,9.461,0,0,1,28.53,2.261,8.753,8.753,0,0,1,31.471,7.01a21.045,21.045,0,0,1,.483,5.025c.016,1.168.033,2.552.036,3.959V16c0,1.407-.02,2.791-.036,3.959a21.034,21.034,0,0,1-.483,5.025,8.753,8.753,0,0,1-2.942,4.749A9.461,9.461,0,0,1,23.076,31.8c-2.158.131-4.375.2-6.765.2Zm-.319-2.5c2.467.006,4.732-.056,6.932-.19A6.885,6.885,0,0,0,26.95,27.8a6.31,6.31,0,0,0,2.1-3.43,19.145,19.145,0,0,0,.405-4.441c.016-1.16.032-2.534.036-3.928s-.02-2.768-.036-3.928a19.149,19.149,0,0,0-.405-4.441,6.31,6.31,0,0,0-2.1-3.43,6.886,6.886,0,0,0-4.026-1.506c-2.2-.134-4.465-.2-6.926-.19s-4.732.056-6.932.19A6.886,6.886,0,0,0,5.04,4.2a6.31,6.31,0,0,0-2.1,3.43,19.147,19.147,0,0,0-.405,4.441C2.52,13.23,2.5,14.6,2.5,16s.02,2.764.036,3.925a19.145,19.145,0,0,0,.405,4.441,6.31,6.31,0,0,0,2.1,3.43A6.886,6.886,0,0,0,9.066,29.3C11.266,29.436,13.532,29.5,15.992,29.493Zm-.06-5.685A7.81,7.81,0,1,1,23.743,16,7.819,7.819,0,0,1,15.933,23.807Zm0-13.121A5.311,5.311,0,1,0,21.244,16,5.317,5.317,0,0,0,15.933,10.686Zm8.685-5a1.874,1.874,0,1,0,1.874,1.874A1.874,1.874,0,0,0,24.618,5.687Zm0,0" transform="translate(0 -0.001)" fill="#fff" opacity="0.7"/></svg>