<svg xmlns="http://www.w3.org/2000/svg" width="36.291" height="26.226" viewBox="0 0 36.291 26.226"><path d="M18.143,26.725h-.01c-1.1-.007-10.776-.1-13.519-.838A5.609,5.609,0,0,1,.667,21.944,41.164,41.164,0,0,1,0,13.648,41.939,41.939,0,0,1,.665,5.289l0-.008a5.727,5.727,0,0,1,3.942-3.97l.014,0C7.336.594,17.035.507,18.133.5h.02c1.1.007,10.8.1,13.522.839a5.608,5.608,0,0,1,3.942,3.938c.745,2.718.676,7.96.668,8.4a41.277,41.277,0,0,1-.665,8.285l0,.008a5.61,5.61,0,0,1-3.949,3.944l-.008,0c-2.711.712-12.412.8-13.509.807h-.01ZM3.406,6.016a40.556,40.556,0,0,0-.57,7.613v.037a38.109,38.109,0,0,0,.57,7.543,2.765,2.765,0,0,0,1.946,1.94c2.024.547,9.908.72,12.79.74,2.889-.02,10.786-.188,12.794-.713a2.766,2.766,0,0,0,1.942-1.94,38.239,38.239,0,0,0,.57-7.543c0-.015,0-.03,0-.045a36.909,36.909,0,0,0-.568-7.625V6.019a2.767,2.767,0,0,0-1.948-1.944c-2-.548-9.9-.72-12.79-.74-2.887.02-10.776.187-12.791.712A2.844,2.844,0,0,0,3.406,6.016ZM34.249,21.6h0Zm-19.72-2.249V7.871l9.923,5.741Zm0,0" transform="translate(0.002 -0.5)" fill="#ccc" opacity="0.7"/></svg>