<svg xmlns="http://www.w3.org/2000/svg" width="142.216" height="33.79" viewBox="0 0 142.216 33.79"><g transform="translate(-1.315 75.203)"><g transform="translate(1.315 -75.203)"><path d="M248.3-75.2c-.142,0-.287.119-.354.359a3.8,3.8,0,0,1-1.29,1.964,3.756,3.756,0,0,1-1.116.448c-.482.136-.474.567,0,.7a3.887,3.887,0,0,1,1.563.859,3.885,3.885,0,0,1,.843,1.546c.068.239.212.36.354.359s.287-.119.355-.359a3.885,3.885,0,0,1,.843-1.546,3.887,3.887,0,0,1,1.563-.859c.474-.135.482-.566,0-.7a3.763,3.763,0,0,1-1.116-.448,3.8,3.8,0,0,1-1.29-1.964c-.068-.239-.211-.36-.355-.359" transform="translate(-128.416 75.203)" fill="#fbbf15" fill-rule="evenodd"/><path d="M132.289-47.078h-4.715V-63.071h2.961c1.721-.071,3.384-.367,5.1-.488,4.827-.316,7.884,3.958,7.884,8.469q0,3.989.005,7.982h-4.715V-55.09c.1-3.02-1.8-4.463-4.357-4.085l-2.175.243C132.293-54.982,132.289-51.03,132.289-47.078Zm-13.239,0h4.74V-63.071h-4.74Zm-117.745,0H6.334L9.082-60.7,13.864-50.43h2.672l4.842-10.224L24.2-47.078H29.2L24.1-68.67h-3.4a1.7,1.7,0,0,0-1.42.973l-4.088,9v.016l-4-9.015a1.667,1.667,0,0,0-1.4-.976H6.334Zm105.529-3.882a3.772,3.772,0,0,1-3.809-4.13,3.818,3.818,0,0,1,3.824-4.125,3.661,3.661,0,0,1,.534.04l3.295.243-.017,3.509c.008.11.012.221.012.333,0,.132,0,.261-.015.389h0A3.878,3.878,0,0,1,106.835-50.961Zm-1.159,4.383a5.786,5.786,0,0,0,5.189-2.544v2.044h4.515V-63.071h-2.962c-2.114-.088-4.041-.333-6.122-.481l-.1-.007c-.182-.011-.368-.018-.556-.018-4.209,0-7.328,3.835-7.328,8.486C98.316-50.407,101.388-46.578,105.675-46.578Zm-12.258-.5h3.535V-51H94.434c-.994,0-1.8-.537-1.8-2.1v-5.931h4.32v-4.046h-4.32v-5.612l-4.741.026v5.586H84.821l1.535,4.046h1.535v5.715c0,5.529,3.171,6.232,5.526,6.232Zm-19.99,0H68.713V-63.071h2.962c1.72-.071,3.384-.367,5.1-.488,4.826-.316,7.883,3.958,7.883,8.469q0,3.989,0,7.982H79.945V-55.09c.1-3.02-1.8-4.463-4.358-4.085l-2.175.243C73.431-54.982,73.427-51.03,73.427-47.078ZM60.644-63.071h4.714v15.993H62.4c-1.72.071-3.384.367-5.1.488-4.827.316-7.884-3.958-7.884-8.469q0-3.989,0-7.982h4.715v7.982c-.1,3.02,1.8,4.463,4.358,4.086l2.175-.243C60.639-55.167,60.644-59.12,60.644-63.071ZM39.155-50.96a3.806,3.806,0,0,1-3.825-4.114,3.814,3.814,0,0,1,3.825-4.114,3.814,3.814,0,0,1,3.824,4.114A3.806,3.806,0,0,1,39.155-50.96Zm-.048,4.383a8.327,8.327,0,0,0,8.581-8.5,8.342,8.342,0,0,0-8.565-8.5,8.317,8.317,0,0,0-8.5,8.5,8.3,8.3,0,0,0,8.486,8.5" transform="translate(-1.305 71.805)" fill="#fff"/><text transform="translate(48.419 32.79)" fill="#fff" font-size="5" font-family="ArminSoft-UltraBold, ArminSoft" font-weight="700" letter-spacing="0.396em"><tspan x="0" y="0">IT&amp;DESIGN</tspan></text></g></g></svg>