<svg xmlns="http://www.w3.org/2000/svg" width="13.03" height="13.027" viewBox="0 0 13.03 13.027"><path d="M251.687-75.2c-.3,0-.6.249-.74.749a7.926,7.926,0,0,1-2.7,4.1,7.831,7.831,0,0,1-2.331.936c-1.005.285-.991,1.185,0,1.467a8.124,8.124,0,0,1,3.265,1.795,8.114,8.114,0,0,1,1.761,3.228c.141.5.441.753.74.749s.6-.249.741-.749a8.115,8.115,0,0,1,1.761-3.228,8.11,8.11,0,0,1,3.264-1.795c.991-.282,1.005-1.182,0-1.467a7.831,7.831,0,0,1-2.331-.936,7.924,7.924,0,0,1-2.695-4.1c-.143-.5-.443-.753-.741-.749" transform="translate(-245.172 75.203)" fill="#fbbf15" fill-rule="evenodd"/></svg>